<svg width="176" height="32" viewBox="0 0 176 32" fill="none" xmlns="http://www.w3.org/2000/svg">
<rect width="32" height="32" rx="8" fill="#6155A6"/>
<path d="M13.9507 16.2927H19.8043C19.9109 16.2927 19.9642 16.2927 20.0093 16.2934C23.1082 16.3421 25.6086 18.8425 25.6573 21.9414C25.658 21.9865 25.658 22.0398 25.658 22.1463V22.1463C25.658 22.2529 25.658 22.3062 25.6573 22.3513C25.6086 25.4502 23.1082 27.9506 20.0093 27.9993C19.9642 28 19.9109 28 19.8043 28V28C19.6978 28 19.6445 28 19.5994 27.9993C16.5005 27.9506 14.0001 25.4502 13.9514 22.3513C13.9507 22.3062 13.9507 22.2529 13.9507 22.1463V16.2927Z" fill="#FFABE1"/>
<path d="M18.0488 15.7073H12.1952C12.0886 15.7073 12.0353 15.7073 11.9902 15.7066C8.89132 15.6579 6.3909 13.1575 6.34222 10.0586C6.34151 10.0135 6.34151 9.96023 6.34151 9.85366V9.85366C6.34151 9.74709 6.34151 9.69381 6.34222 9.64874C6.3909 6.54981 8.89132 4.04939 11.9902 4.00071C12.0353 4 12.0886 4 12.1952 4V4C12.3017 4 12.355 4 12.4001 4.00071C15.499 4.04939 17.9994 6.54981 18.0481 9.64874C18.0488 9.69381 18.0488 9.74709 18.0488 9.85366V15.7073Z" fill="#FFABE1"/>
<path d="M13.3652 16.2927H9.85304C7.91331 16.2927 6.34084 17.8651 6.34084 19.8049V19.8049C6.34084 21.7446 7.91331 23.3171 9.85304 23.3171V23.3171C11.7928 23.3171 13.3652 21.7446 13.3652 19.8049V16.2927Z" fill="#FFF7FC"/>
<path d="M18.6343 15.7073H22.1465C24.0862 15.7073 25.6587 14.1349 25.6587 12.1951V12.1951C25.6587 10.2554 24.0862 8.68293 22.1465 8.68293V8.68293C20.2067 8.68293 18.6343 10.2554 18.6343 12.1951V15.7073Z" fill="#FFF7FC"/>
<path d="M57.3395 12.4531C57.2732 11.8329 56.9938 11.3499 56.5014 11.0043C56.0137 10.6586 55.3793 10.4858 54.598 10.4858C54.0488 10.4858 53.5777 10.5687 53.1847 10.7344C52.7917 10.9001 52.491 11.125 52.2827 11.4091C52.0743 11.6932 51.9678 12.0175 51.9631 12.3821C51.9631 12.6851 52.0317 12.9479 52.169 13.1705C52.3111 13.393 52.5028 13.5824 52.7443 13.7386C52.9858 13.8902 53.2533 14.018 53.5469 14.1222C53.8404 14.2263 54.1364 14.3139 54.4347 14.3849L55.7983 14.7259C56.3475 14.8537 56.8755 15.0265 57.3821 15.2443C57.8935 15.4621 58.3504 15.7367 58.7528 16.0682C59.16 16.3996 59.482 16.7997 59.7188 17.2685C59.9555 17.7372 60.0739 18.2865 60.0739 18.9162C60.0739 19.7685 59.8561 20.5189 59.4205 21.1676C58.9848 21.8116 58.3551 22.3158 57.5312 22.6804C56.7121 23.0402 55.7202 23.2202 54.5554 23.2202C53.4238 23.2202 52.4413 23.045 51.608 22.6946C50.7794 22.3442 50.1307 21.8329 49.6619 21.1605C49.1979 20.4882 48.947 19.669 48.9091 18.7031H51.5014C51.5393 19.2098 51.6955 19.6312 51.9702 19.9673C52.2448 20.3035 52.6023 20.5545 53.0426 20.7202C53.4877 20.8859 53.9848 20.9688 54.5341 20.9688C55.107 20.9688 55.6089 20.8835 56.0398 20.7131C56.4754 20.5379 56.8163 20.2964 57.0625 19.9886C57.3087 19.6761 57.4342 19.3116 57.4389 18.8949C57.4342 18.5161 57.3229 18.2036 57.1051 17.9574C56.8873 17.7064 56.5819 17.4981 56.1889 17.3324C55.8007 17.1619 55.3461 17.0104 54.8253 16.8778L53.1705 16.4517C51.9725 16.1439 51.0256 15.6776 50.3295 15.0526C49.6383 14.4228 49.2926 13.5871 49.2926 12.5455C49.2926 11.6884 49.5246 10.938 49.9886 10.294C50.4574 9.65009 51.0942 9.15057 51.8991 8.79545C52.7041 8.43561 53.6155 8.25568 54.6335 8.25568C55.6657 8.25568 56.5701 8.43561 57.3466 8.79545C58.1278 9.15057 58.741 9.64536 59.1861 10.2798C59.6312 10.9096 59.8608 11.634 59.875 12.4531H57.3395ZM66.8803 16.608V23H64.3093V12.0909H66.7667V13.9446H66.8945C67.1455 13.3338 67.5456 12.8485 68.0948 12.4886C68.6488 12.1288 69.333 11.9489 70.1474 11.9489C70.9002 11.9489 71.556 12.1098 72.1147 12.4318C72.6781 12.7538 73.1138 13.2202 73.4215 13.831C73.734 14.4418 73.8879 15.1828 73.8832 16.054V23H71.3121V16.4517C71.3121 15.7225 71.1228 15.152 70.744 14.7401C70.3699 14.3281 69.8514 14.1222 69.1886 14.1222C68.7388 14.1222 68.3387 14.2216 67.9883 14.4205C67.6426 14.6146 67.3704 14.8963 67.1715 15.2656C66.9774 15.6349 66.8803 16.0824 66.8803 16.608ZM81.636 23.2202C80.9447 23.2202 80.3221 23.0971 79.7681 22.8509C79.2189 22.5999 78.7833 22.2306 78.4613 21.7429C78.1441 21.2552 77.9854 20.6539 77.9854 19.9389C77.9854 19.3234 78.0991 18.8144 78.3263 18.4119C78.5536 18.0095 78.8638 17.6875 79.2567 17.446C79.6497 17.2045 80.0924 17.0223 80.5849 16.8991C81.082 16.7713 81.5958 16.679 82.1261 16.6222C82.7653 16.5559 83.2837 16.4967 83.6815 16.4446C84.0792 16.3878 84.368 16.3026 84.5479 16.1889C84.7326 16.0705 84.8249 15.8883 84.8249 15.642V15.5994C84.8249 15.0644 84.6663 14.6501 84.3491 14.3565C84.0318 14.063 83.5749 13.9162 82.9783 13.9162C82.3486 13.9162 81.8491 14.0535 81.4798 14.3281C81.1152 14.6027 80.869 14.9271 80.7411 15.3011L78.3406 14.9602C78.5299 14.2973 78.8424 13.7434 79.2781 13.2983C79.7137 12.8485 80.2463 12.5123 80.8761 12.2898C81.5058 12.0625 82.2018 11.9489 82.9641 11.9489C83.4897 11.9489 84.0129 12.0104 84.5337 12.1335C85.0546 12.2566 85.5304 12.4602 85.9613 12.7443C86.3922 13.0237 86.7378 13.4048 86.9982 13.8878C87.2634 14.3707 87.396 14.9744 87.396 15.6989V23H84.9244V21.5014H84.8391C84.6829 21.8045 84.4627 22.0885 84.1786 22.3537C83.8993 22.6141 83.5465 22.8248 83.1204 22.9858C82.699 23.142 82.2042 23.2202 81.636 23.2202ZM82.3036 21.331C82.8197 21.331 83.2672 21.2292 83.646 21.0256C84.0247 20.8172 84.3159 20.5426 84.5195 20.2017C84.7279 19.8608 84.832 19.4891 84.832 19.0866V17.8011C84.7515 17.8674 84.6142 17.929 84.4201 17.9858C84.2307 18.0426 84.0176 18.0923 83.7809 18.1349C83.5442 18.1776 83.3098 18.2154 83.0778 18.2486C82.8458 18.2817 82.6445 18.3101 82.4741 18.3338C82.0906 18.3859 81.7473 18.4711 81.4442 18.5895C81.1412 18.7079 80.9021 18.8736 80.7269 19.0866C80.5517 19.295 80.4641 19.5649 80.4641 19.8963C80.4641 20.3698 80.637 20.7273 80.9826 20.9688C81.3282 21.2102 81.7686 21.331 82.3036 21.331ZM91.9812 27.0909V12.0909H94.5096V13.8949H94.6587C94.7913 13.6297 94.9783 13.348 95.2198 13.0497C95.4613 12.7467 95.788 12.4886 96.1999 12.2756C96.6119 12.0578 97.1374 11.9489 97.7766 11.9489C98.6194 11.9489 99.3794 12.1643 100.056 12.5952C100.738 13.0213 101.278 13.6534 101.676 14.4915C102.078 15.3248 102.279 16.3475 102.279 17.5597C102.279 18.7576 102.083 19.7756 101.69 20.6136C101.297 21.4517 100.762 22.0909 100.085 22.5312C99.4078 22.9716 98.6407 23.1918 97.7837 23.1918C97.1587 23.1918 96.6403 23.0876 96.2283 22.8793C95.8164 22.6709 95.485 22.42 95.234 22.1264C94.9878 21.8281 94.796 21.5464 94.6587 21.2812H94.5522V27.0909H91.9812ZM94.5025 17.5455C94.5025 18.2509 94.6019 18.8688 94.8008 19.3991C95.0044 19.9295 95.2956 20.3437 95.6744 20.642C96.0579 20.9356 96.5219 21.0824 97.0664 21.0824C97.6346 21.0824 98.1104 20.9309 98.494 20.6278C98.8775 20.3201 99.1663 19.901 99.3604 19.3707C99.5593 18.8357 99.6587 18.2273 99.6587 17.5455C99.6587 16.8684 99.5617 16.267 99.3675 15.7415C99.1734 15.2159 98.8846 14.804 98.5011 14.5057C98.1175 14.2074 97.6393 14.0582 97.0664 14.0582C96.5172 14.0582 96.0508 14.2027 95.6673 14.4915C95.2837 14.7803 94.9925 15.1851 94.7937 15.706C94.5996 16.2268 94.5025 16.84 94.5025 17.5455ZM107.779 23H104.967L110.087 8.45455H113.34L118.468 23H115.656L111.771 11.4375H111.657L107.779 23ZM107.871 17.2969H115.542V19.4134H107.871V17.2969ZM125.987 23.1918C125.129 23.1918 124.362 22.9716 123.685 22.5312C123.008 22.0909 122.473 21.4517 122.08 20.6136C121.687 19.7756 121.491 18.7576 121.491 17.5597C121.491 16.3475 121.69 15.3248 122.087 14.4915C122.49 13.6534 123.032 13.0213 123.714 12.5952C124.396 12.1643 125.156 11.9489 125.994 11.9489C126.633 11.9489 127.158 12.0578 127.57 12.2756C127.982 12.4886 128.309 12.7467 128.55 13.0497C128.792 13.348 128.979 13.6297 129.112 13.8949H129.218V8.45455H131.796V23H129.268V21.2812H129.112C128.979 21.5464 128.787 21.8281 128.536 22.1264C128.285 22.42 127.954 22.6709 127.542 22.8793C127.13 23.0876 126.612 23.1918 125.987 23.1918ZM126.704 21.0824C127.248 21.0824 127.712 20.9356 128.096 20.642C128.479 20.3437 128.771 19.9295 128.969 19.3991C129.168 18.8688 129.268 18.2509 129.268 17.5455C129.268 16.84 129.168 16.2268 128.969 15.706C128.775 15.1851 128.487 14.7803 128.103 14.4915C127.724 14.2027 127.258 14.0582 126.704 14.0582C126.131 14.0582 125.653 14.2074 125.269 14.5057C124.886 14.804 124.597 15.2159 124.403 15.7415C124.209 16.267 124.112 16.8684 124.112 17.5455C124.112 18.2273 124.209 18.8357 124.403 19.3707C124.602 19.901 124.893 20.3201 125.276 20.6278C125.665 20.9309 126.14 21.0824 126.704 21.0824ZM136.536 23V12.0909H138.993V13.9446H139.121C139.348 13.3196 139.725 12.8319 140.25 12.4815C140.776 12.1264 141.403 11.9489 142.132 11.9489C142.871 11.9489 143.494 12.1288 144 12.4886C144.512 12.8437 144.872 13.3291 145.08 13.9446H145.194C145.435 13.3385 145.842 12.8556 146.415 12.4957C146.993 12.1312 147.677 11.9489 148.468 11.9489C149.471 11.9489 150.291 12.2661 150.925 12.9006C151.56 13.535 151.877 14.4607 151.877 15.6776V23H149.299V16.0753C149.299 15.3982 149.119 14.9034 148.759 14.5909C148.399 14.2737 147.959 14.1151 147.438 14.1151C146.818 14.1151 146.332 14.3092 145.982 14.6974C145.636 15.081 145.463 15.5805 145.463 16.196V23H142.942V15.9688C142.942 15.4053 142.772 14.9555 142.431 14.6193C142.095 14.2831 141.654 14.1151 141.11 14.1151C140.74 14.1151 140.404 14.2098 140.101 14.3991C139.798 14.5838 139.557 14.8466 139.377 15.1875C139.197 15.5237 139.107 15.9167 139.107 16.3665V23H136.536ZM156.485 23V12.0909H159.056V23H156.485ZM157.778 10.5426C157.371 10.5426 157.02 10.4077 156.727 10.1378C156.433 9.86316 156.286 9.53409 156.286 9.15057C156.286 8.76231 156.433 8.43324 156.727 8.16335C157.02 7.88873 157.371 7.75142 157.778 7.75142C158.19 7.75142 158.54 7.88873 158.829 8.16335C159.122 8.43324 159.269 8.76231 159.269 9.15057C159.269 9.53409 159.122 9.86316 158.829 10.1378C158.54 10.4077 158.19 10.5426 157.778 10.5426ZM166.271 16.608V23H163.7V12.0909H166.157V13.9446H166.285C166.536 13.3338 166.936 12.8485 167.485 12.4886C168.039 12.1288 168.724 11.9489 169.538 11.9489C170.291 11.9489 170.947 12.1098 171.505 12.4318C172.069 12.7538 172.504 13.2202 172.812 13.831C173.125 14.4418 173.279 15.1828 173.274 16.054V23H170.703V16.4517C170.703 15.7225 170.513 15.152 170.135 14.7401C169.761 14.3281 169.242 14.1222 168.579 14.1222C168.129 14.1222 167.729 14.2216 167.379 14.4205C167.033 14.6146 166.761 14.8963 166.562 15.2656C166.368 15.6349 166.271 16.0824 166.271 16.608Z" fill="#F9FAFA"/>
</svg>
