<svg width="66" height="82" viewBox="0 0 66 82" fill="none" xmlns="http://www.w3.org/2000/svg">
<path d="M26 42H46C46.3641 42 46.5462 42 46.7001 42.0024C57.2882 42.1687 65.8312 50.7118 65.9976 61.2999C66 61.4538 66 61.6359 66 62C66 62.3641 66 62.5462 65.9976 62.7001C65.8312 73.2882 57.2882 81.8312 46.7001 81.9976C46.5462 82 46.3641 82 46 82C45.6359 82 45.4538 82 45.2999 81.9976C34.7118 81.8312 26.1687 73.2882 26.0024 62.7001C26 62.5462 26 62.3641 26 62V42Z" fill="#FFABE1"/>
<path d="M40 40H20C19.6359 40 19.4538 40 19.2999 39.9976C8.71184 39.8313 0.168751 31.2882 0.00241852 20.7001C0 20.5462 0 20.3641 0 20C0 19.6359 0 19.4538 0.00241852 19.2999C0.168751 8.71184 8.71184 0.168751 19.2999 0.00241852C19.4538 0 19.6359 0 20 0C20.3641 0 20.5462 0 20.7001 0.00241852C31.2882 0.168751 39.8313 8.71184 39.9976 19.2999C40 19.4538 40 19.6359 40 20V40Z" fill="#FFABE1"/>
<path d="M24 42H12C5.37258 42 0 47.3726 0 54C0 60.6274 5.37258 66 12 66C18.6274 66 24 60.6274 24 54V42Z" fill="#6155A6"/>
<path d="M42 40H54C60.6274 40 66 34.6274 66 28C66 21.3726 60.6274 16 54 16C47.3726 16 42 21.3726 42 28V40Z" fill="#6155A6"/>
</svg>
